<svg width="37" height="37" viewBox="0 0 37 37" fill="none" xmlns="http://www.w3.org/2000/svg">
<path d="M18.5 2.3125C27.4248 2.3125 34.6875 9.5752 34.6875 18.5C34.6875 27.4248 27.4248 34.6875 18.5 34.6875C9.5752 34.6875 2.3125 27.4248 2.3125 18.5C2.3125 9.5752 9.5752 2.3125 18.5 2.3125ZM18.5 0C8.28345 0 0 8.28345 0 18.5C0 28.7166 8.28345 37 18.5 37C28.7166 37 37 28.7166 37 18.5C37 8.28345 28.7166 0 18.5 0ZM28.8137 24.6855L28.7098 24.3693C28.4659 23.6422 27.6619 22.8834 26.9212 22.6801L24.1864 21.9326C23.4457 21.7316 22.3888 22.0026 21.8447 22.5469L20.8555 23.536C17.2603 22.5627 14.4397 19.7421 13.4686 16.1469L14.4577 15.1577C14.9997 14.6157 15.2707 13.5588 15.0698 12.8159L14.3244 10.0811C14.1234 9.34033 13.3601 8.53638 12.633 8.29248L12.3213 8.18856C11.5918 7.94467 10.5508 8.1908 10.0088 8.73511L8.52734 10.2166C8.26314 10.4785 8.09375 11.2305 8.09375 11.2328C8.04403 15.9346 9.88688 20.4625 13.2111 23.789C16.5263 27.1042 21.0384 28.9448 25.7243 28.904C25.7492 28.904 26.5238 28.7392 26.788 28.4749L28.2694 26.9935C28.8114 26.4537 29.0553 25.4126 28.8137 24.6855Z" fill="white"/>
</svg>
