<?xml version="1.0" encoding="UTF-8"?>
<svg width="81px" height="15px" viewBox="0 0 81 15" version="1.1" xmlns="http://www.w3.org/2000/svg" xmlns:xlink="http://www.w3.org/1999/xlink">
    <!-- Generator: Sketch 49.3 (51167) - http://www.bohemiancoding.com/sketch -->
    <title>logo DaNaWeb</title>
    <desc>Created with Sketch.</desc>
    <defs></defs>
    <g id="Page-1" stroke="none" stroke-width="1" fill="none" fill-rule="evenodd">
        <g id="[3]-DỰ-ÁN-B" transform="translate(-1282.000000, -3314.000000)" fill="#FFFFFF">
            <g id="Group-3" transform="translate(0.000000, 3189.000000)">
                <g id="logo-DaNaWeb" transform="translate(1282.000000, 125.000000)">
                    <path d="M76.5451,11.5228 C76.7691,11.5228 76.9631,11.4378 77.1251,11.2658 C77.2871,11.0958 77.3681,10.8918 77.3681,10.6538 C77.3681,10.4168 77.2871,10.2118 77.1251,10.0408 C76.9631,9.8708 76.7691,9.7848 76.5451,9.7848 L73.9841,9.7848 L73.9841,11.5228 L76.5451,11.5228 Z M73.9841,6.4018 L73.9841,8.1398 L76.5451,8.1398 C76.7691,8.1398 76.9631,8.0548 77.1251,7.8838 C77.2871,7.7128 77.3681,7.5088 77.3681,7.2708 C77.3681,7.0328 77.2871,6.8288 77.1251,6.6578 C76.9631,6.4868 76.7691,6.4018 76.5451,6.4018 L73.9841,6.4018 Z M79.8291,8.9618 C80.3591,9.5768 80.6351,10.2938 80.6591,11.1138 C80.6851,12.0768 80.3151,13.0208 79.6331,13.7008 C78.9511,14.3828 78.1271,14.7238 77.1621,14.7238 L71.3981,14.7238 C71.0591,14.7238 70.7841,14.4478 70.7841,14.1088 L70.7841,3.8148 C70.7841,3.4758 71.0591,3.2008 71.3981,3.2008 L77.1551,3.2008 C77.9941,3.2008 78.8181,3.4908 79.4471,4.0478 C80.2551,4.7638 80.6601,5.6478 80.6601,6.6988 C80.6601,7.5658 80.3821,8.3198 79.8291,8.9618 Z" id="Fill-1"></path>
                    <path d="M53.9214,9.7854 L52.1274,3.6434 C52.0504,3.3804 51.8104,3.2004 51.5374,3.2004 L49.0294,3.2004 C48.7554,3.2004 48.5154,3.3804 48.4394,3.6434 L47.1334,8.1154 L48.8364,14.0174 L50.2824,9.0674 L51.8054,14.2814 C51.8814,14.5434 52.1224,14.7234 52.3954,14.7234 L55.4484,14.7234 C55.7214,14.7234 55.9614,14.5434 56.0384,14.2814 L60.2194,0.0004 L57.2504,0.0004 C56.9774,0.0004 56.7374,0.1794 56.6604,0.4414 L53.9214,9.7854 Z" id="Fill-4"></path>
                    <path d="M32.2671,10.0265 L32.2671,3.8155 C32.2671,3.4755 32.5421,3.2005 32.8821,3.2005 L34.9451,3.2005 C35.2851,3.2005 35.5601,3.4755 35.5601,3.8155 L35.5601,14.7235 L31.3661,14.7235 C31.1391,14.7235 30.9301,14.5985 30.8231,14.3975 L27.3281,7.8245 L27.3281,14.1095 C27.3281,14.4485 27.0521,14.7235 26.7131,14.7235 L24.0361,14.7235 L24.0361,3.8155 C24.0361,3.4755 24.3111,3.2005 24.6501,3.2005 L28.2311,3.2005 C28.4571,3.2005 28.6651,3.3255 28.7721,3.5245 L32.2671,10.0265 Z" id="Fill-6"></path>
                    <path d="M5.7609,11.5238 L3.2919,11.5238 L3.2919,6.4008 L5.7609,6.4008 C7.1249,6.4008 8.2299,7.5478 8.2299,8.9628 C8.2299,10.3768 7.1249,11.5238 5.7609,11.5238 M9.8349,4.8868 C8.7289,3.7828 7.2039,3.2008 5.6409,3.2008 L0.6149,3.2008 C0.2749,3.2008 -0.0001,3.4758 -0.0001,3.8148 L-0.0001,14.1088 C-0.0001,14.4478 0.2749,14.7238 0.6149,14.7238 L5.6399,14.7238 C7.2029,14.7238 8.7289,14.1418 9.8339,13.0378 C10.9599,11.9128 11.5219,10.5538 11.5219,8.9618 C11.5219,7.3708 10.9599,6.0118 9.8349,4.8868" id="Fill-8"></path>
                    <path d="M14.4806,14.7235 L11.5126,14.7235 L14.7496,3.6435 C14.8266,3.3805 15.0666,3.2005 15.3406,3.2005 L19.3526,3.2005 C19.6256,3.2005 19.8656,3.3805 19.9426,3.6435 L23.1796,14.7235 L20.2146,14.7235 C19.9416,14.7235 19.7016,14.5435 19.6246,14.2815 L19.2596,13.0315 L16.3976,13.0315 L17.2036,10.2735 C17.2796,10.0115 17.5196,9.8305 17.7926,9.8305 L18.3216,9.8305 L17.3456,6.4015 L15.0716,14.2795 C14.9946,14.5425 14.7546,14.7235 14.4806,14.7235" id="Fill-11"></path>
                    <path d="M39.3841,14.7235 L36.4171,14.7235 L39.6541,3.6435 C39.7301,3.3805 39.9701,3.2005 40.2441,3.2005 L44.2561,3.2005 C44.5291,3.2005 44.7701,3.3805 44.8461,3.6435 L48.0841,14.7235 L45.1181,14.7235 C44.8451,14.7235 44.6051,14.5435 44.5291,14.2815 L44.1631,13.0315 L41.3011,13.0315 L42.1071,10.2735 C42.1831,10.0115 42.4241,9.8305 42.6971,9.8305 L43.2261,9.8305 L42.2491,6.4015 L39.9751,14.2795 C39.8981,14.5425 39.6581,14.7235 39.3841,14.7235" id="Fill-13"></path>
                    <path d="M68.7638,6.4013 L69.7098,3.2003 L63.5118,3.2003 L60.8348,3.2003 C60.4948,3.2003 60.2198,3.4763 60.2198,3.8153 L60.2198,6.4933 L60.2198,11.4313 L60.2198,14.1093 C60.2198,14.4483 60.4948,14.7233 60.8348,14.7233 L63.5118,14.7233 L69.7098,14.7233 L69.7098,11.5223 L63.5118,11.5223 L63.5118,10.5623 L65.6738,10.5623 L66.5938,7.3623 L63.5118,7.3623 L63.5118,6.4013 L68.7638,6.4013 Z" id="Fill-15"></path>
                </g>
            </g>
        </g>
    </g>
</svg>